<?xml version="1.0" encoding="UTF-8" standalone="no"?>
<!-- Created with Inkscape (http://www.inkscape.org/) -->

<svg
   xmlns:dc="http://purl.org/dc/elements/1.1/"
   xmlns:cc="http://creativecommons.org/ns#"
   xmlns:rdf="http://www.w3.org/1999/02/22-rdf-syntax-ns#"
   xmlns:svg="http://www.w3.org/2000/svg"
   xmlns="http://www.w3.org/2000/svg"
   xmlns:xlink="http://www.w3.org/1999/xlink"
   version="1.1"
   width="250"
   height="200"
   id="svg3039">
  <defs
     id="defs3041">
    <clipPath
       id="SVGID_2_">
      <use
         id="use9"
         style="overflow:visible"
         x="0"
         y="0"
         width="744.09448"
         height="1052.3622"
         xlink:href="#SVGID_1_" />
    </clipPath>
    <clipPath
       id="clipPath3059">
      <use
         id="use3061"
         style="overflow:visible"
         x="0"
         y="0"
         width="744.09448"
         height="1052.3622"
         xlink:href="#SVGID_1_" />
    </clipPath>
    <clipPath
       id="clipPath3063">
      <use
         id="use3065"
         style="overflow:visible"
         x="0"
         y="0"
         width="744.09448"
         height="1052.3622"
         xlink:href="#SVGID_1_" />
    </clipPath>
    <clipPath
       id="clipPath3067">
      <use
         id="use3069"
         style="overflow:visible"
         x="0"
         y="0"
         width="744.09448"
         height="1052.3622"
         xlink:href="#SVGID_1_" />
    </clipPath>
    <clipPath
       id="clipPath3071">
      <use
         id="use3073"
         style="overflow:visible"
         x="0"
         y="0"
         width="744.09448"
         height="1052.3622"
         xlink:href="#SVGID_1_" />
    </clipPath>
    <clipPath
       id="clipPath3075">
      <use
         id="use3077"
         style="overflow:visible"
         x="0"
         y="0"
         width="744.09448"
         height="1052.3622"
         xlink:href="#SVGID_1_" />
    </clipPath>
    <clipPath
       id="clipPath3079">
      <use
         id="use3081"
         style="overflow:visible"
         x="0"
         y="0"
         width="744.09448"
         height="1052.3622"
         xlink:href="#SVGID_1_" />
    </clipPath>
    <clipPath
       id="clipPath3083">
      <use
         id="use3085"
         style="overflow:visible"
         x="0"
         y="0"
         width="744.09448"
         height="1052.3622"
         xlink:href="#SVGID_1_" />
    </clipPath>
    <clipPath
       id="clipPath3087">
      <use
         id="use3089"
         style="overflow:visible"
         x="0"
         y="0"
         width="744.09448"
         height="1052.3622"
         xlink:href="#SVGID_1_" />
    </clipPath>
    <clipPath
       id="clipPath3091">
      <use
         id="use3093"
         style="overflow:visible"
         x="0"
         y="0"
         width="744.09448"
         height="1052.3622"
         xlink:href="#SVGID_1_" />
    </clipPath>
    <clipPath
       id="clipPath3095">
      <use
         id="use3097"
         style="overflow:visible"
         x="0"
         y="0"
         width="744.09448"
         height="1052.3622"
         xlink:href="#SVGID_1_" />
    </clipPath>
    <clipPath
       id="clipPath3099">
      <use
         id="use3101"
         style="overflow:visible"
         x="0"
         y="0"
         width="744.09448"
         height="1052.3622"
         xlink:href="#SVGID_1_" />
    </clipPath>
    <clipPath
       id="clipPath3103">
      <use
         id="use3105"
         style="overflow:visible"
         x="0"
         y="0"
         width="744.09448"
         height="1052.3622"
         xlink:href="#SVGID_1_" />
    </clipPath>
    <clipPath
       id="clipPath3107">
      <use
         id="use3109"
         style="overflow:visible"
         x="0"
         y="0"
         width="744.09448"
         height="1052.3622"
         xlink:href="#SVGID_1_" />
    </clipPath>
  </defs>
  <metadata
     id="metadata3044">
    <rdf:RDF>
      <cc:Work
         rdf:about="">
        <dc:format>image/svg+xml</dc:format>
        <dc:type
           rdf:resource="http://purl.org/dc/dcmitype/StillImage" />
        <dc:title></dc:title>
      </cc:Work>
    </rdf:RDF>
  </metadata>
  <g
     transform="translate(0,-852.36218)"
     id="layer1">
    <g
       transform="matrix(0.92602277,0,0,0.92602277,-27.841914,958.13114)"
       id="g3">
      <defs
         id="defs5">
        <rect
           width="314.103"
           height="125.641"
           x="0"
           y="0"
           id="SVGID_1_" />
      </defs>
      <clipPath
         id="clipPath3114">
        <use
           id="use3116"
           style="overflow:visible"
           x="0"
           y="0"
           width="744.09448"
           height="1052.3622"
           xlink:href="#SVGID_1_" />
      </clipPath>
      <path
         d="m 34.703,62.823 c 0,-3.426 2.778,-6.205 6.204,-6.205 3.427,0 6.204,2.779 6.204,6.205 0,3.429 -2.777,6.206 -6.204,6.206 -3.427,0 -6.204,-2.778 -6.204,-6.206"
         clip-path="url(#SVGID_2_)"
         id="path11"
         style="fill:#bdd13d" />
      <path
         d="m 97.531,62.823 c 0,-3.426 2.778,-6.205 6.203,-6.205 3.428,0 6.204,2.779 6.204,6.205 0,3.429 -2.776,6.206 -6.204,6.206 -3.425,0 -6.203,-2.778 -6.203,-6.206"
         clip-path="url(#SVGID_2_)"
         id="path13"
         style="fill:#bcbec0" />
      <path
         d="m 52.695,30.727 c 2.922,-1.786 6.741,-0.864 8.53,2.058 1.786,2.923 0.865,6.741 -2.057,8.53 -2.924,1.788 -6.742,0.866 -8.531,-2.058 -1.786,-2.923 -0.866,-6.742 2.058,-8.53"
         clip-path="url(#SVGID_2_)"
         id="path15"
         style="fill:#d1d3d4" />
      <path
         d="m 85.471,84.33 c 2.922,-1.788 6.742,-0.865 8.53,2.057 1.786,2.923 0.866,6.742 -2.057,8.53 -2.924,1.788 -6.742,0.865 -8.53,-2.058 -1.786,-2.922 -0.867,-6.741 2.057,-8.529"
         clip-path="url(#SVGID_2_)"
         id="path17"
         style="fill:#939598" />
      <path
         d="m 90.712,30.006 c 2.987,1.673 4.052,5.457 2.379,8.444 -1.676,2.99 -5.457,4.054 -8.446,2.379 -2.99,-1.676 -4.055,-5.456 -2.377,-8.447 1.673,-2.987 5.456,-4.052 8.444,-2.376"
         clip-path="url(#SVGID_2_)"
         id="path19"
         style="fill:#6d6e71" />
      <path
         d="m 59.995,84.813 c 2.987,1.675 4.054,5.455 2.379,8.446 -1.676,2.987 -5.457,4.052 -8.445,2.377 -2.99,-1.676 -4.054,-5.455 -2.379,-8.446 1.674,-2.988 5.455,-4.053 8.445,-2.377"
         clip-path="url(#SVGID_2_)"
         id="path21"
         style="fill:#a7a9ac" />
      <polygon
         points="72.482,83.392 54.59,73.249 54.426,52.681 72.155,42.257 90.047,52.398 90.214,72.964 "
         clip-path="url(#SVGID_2_)"
         id="polygon23"
         style="fill:#22bde4" />
      <path
         d="m 150.125,76.123 h -5.334 V 60.706 c 0,-1.912 -0.361,-3.34 -1.085,-4.282 -0.723,-0.941 -1.853,-1.414 -3.391,-1.414 -2.047,0 -3.55,0.667 -4.508,2.001 -0.956,1.334 -1.436,3.553 -1.436,6.657 v 12.455 h -5.309 v -25 h 4.158 l 0.744,3.277 h 0.273 c 0.692,-1.189 1.699,-2.108 3.016,-2.757 1.319,-0.648 2.769,-0.972 4.351,-0.972 3.843,0 6.389,1.312 7.639,3.933 h 0.361 c 0.741,-1.236 1.78,-2.199 3.121,-2.894 1.341,-0.692 2.877,-1.039 4.61,-1.039 2.983,0 5.156,0.754 6.52,2.261 1.365,1.506 2.046,3.805 2.046,6.895 V 76.123 H 160.59 V 60.706 c 0,-1.912 -0.365,-3.34 -1.097,-4.282 -0.729,-0.941 -1.863,-1.414 -3.401,-1.414 -2.065,0 -3.575,0.644 -4.532,1.934 -0.957,1.287 -1.436,3.266 -1.436,5.932 v 13.247 z"
         clip-path="url(#SVGID_2_)"
         id="path25"
         style="fill:#bdd13d" />
      <path
         d="m 170.682,44.5 c 0,-0.949 0.261,-1.68 0.779,-2.192 0.522,-0.512 1.264,-0.767 2.229,-0.767 0.934,0 1.659,0.255 2.18,0.767 0.52,0.512 0.78,1.243 0.78,2.192 0,0.904 -0.261,1.617 -0.78,2.137 -0.521,0.519 -1.246,0.779 -2.18,0.779 -0.966,0 -1.707,-0.26 -2.229,-0.779 -0.519,-0.52 -0.779,-1.233 -0.779,-2.137 m 5.628,31.623 H 171 v -25 h 5.31 v 25 z"
         clip-path="url(#SVGID_2_)"
         id="path27"
         style="fill:#bdd13d" />
      <path
         d="m 190.021,76.574 c -3.119,0 -5.553,-1.131 -7.301,-3.391 -1.748,-2.261 -2.621,-5.431 -2.621,-9.516 0,-4.1 0.886,-7.291 2.656,-9.573 1.77,-2.283 4.223,-3.424 7.358,-3.424 3.282,0 5.784,1.214 7.503,3.638 h 0.27 c -0.255,-1.792 -0.382,-3.209 -0.382,-4.248 v -9.109 h 5.333 v 35.171 h -4.16 l -0.927,-3.278 h -0.246 c -1.703,2.487 -4.198,3.73 -7.483,3.73 m 1.424,-4.296 c 2.187,0 3.773,-0.61 4.771,-1.839 0.994,-1.229 1.506,-3.224 1.535,-5.979 v -0.749 c 0,-3.147 -0.512,-5.387 -1.535,-6.711 -1.025,-1.326 -2.629,-1.99 -4.816,-1.99 -1.867,0 -3.308,0.758 -4.314,2.271 -1.011,1.516 -1.515,3.676 -1.515,6.478 0,2.773 0.488,4.885 1.469,6.339 0.978,1.453 2.446,2.18 4.405,2.18"
         clip-path="url(#SVGID_2_)"
         id="path29"
         style="fill:#bdd13d" />
      <path
         d="m 230.287,63.577 c 0,4.085 -1.047,7.271 -3.141,9.562 -2.096,2.29 -5.011,3.435 -8.746,3.435 -2.337,0 -4.402,-0.527 -6.194,-1.581 -1.793,-1.054 -3.173,-2.569 -4.135,-4.543 -0.965,-1.974 -1.447,-4.268 -1.447,-6.873 0,-4.052 1.039,-7.218 3.118,-9.493 2.08,-2.275 5.01,-3.413 8.792,-3.413 3.617,0 6.48,1.165 8.59,3.492 2.108,2.329 3.163,5.466 3.163,9.414 m -18.193,0 c 0,5.771 2.133,8.657 6.396,8.657 4.219,0 6.329,-2.887 6.329,-8.657 0,-5.709 -2.124,-8.567 -6.373,-8.567 -2.232,0 -3.847,0.738 -4.848,2.216 -1.004,1.477 -1.504,3.593 -1.504,6.351"
         clip-path="url(#SVGID_2_)"
         id="path31"
         style="fill:#bdd13d" />
      <path
         d="M 251.207,76.123 V 60.096 c 0,-2.017 -0.46,-3.526 -1.377,-4.52 -0.92,-0.995 -2.358,-1.492 -4.317,-1.492 -2.591,0 -4.491,0.702 -5.696,2.102 -1.206,1.401 -1.807,3.715 -1.807,6.941 v 12.996 h -3.753 V 51.351 h 3.052 l 0.61,3.389 h 0.18 c 0.768,-1.219 1.846,-2.166 3.231,-2.837 1.388,-0.67 2.933,-1.006 4.636,-1.006 2.98,0 5.227,0.719 6.733,2.158 1.506,1.44 2.261,3.742 2.261,6.906 v 16.162 h -3.753 z"
         clip-path="url(#SVGID_2_)"
         id="path33"
         style="fill:#939598" />
      <path
         d="m 270.817,76.574 c -3.663,0 -6.551,-1.117 -8.668,-3.344 -2.118,-2.232 -3.177,-5.328 -3.177,-9.291 0,-3.993 0.982,-7.166 2.948,-9.516 1.969,-2.35 4.608,-3.527 7.924,-3.527 3.104,0 5.559,1.021 7.368,3.064 1.81,2.042 2.711,4.735 2.711,8.08 v 2.373 h -17.062 c 0.075,2.908 0.808,5.117 2.203,6.622 1.393,1.509 3.355,2.261 5.887,2.261 2.667,0 5.304,-0.556 7.911,-1.673 v 3.345 c -1.326,0.574 -2.582,0.984 -3.762,1.232 -1.184,0.25 -2.612,0.374 -4.283,0.374 M 269.799,54.04 c -1.989,0 -3.573,0.646 -4.758,1.942 -1.182,1.296 -1.881,3.089 -2.092,5.38 h 12.952 c 0,-2.365 -0.527,-4.178 -1.582,-5.436 -1.054,-1.257 -2.561,-1.886 -4.52,-1.886"
         clip-path="url(#SVGID_2_)"
         id="path35"
         style="fill:#939598" />
      <path
         d="m 292.01,73.477 c 0.662,0 1.303,-0.047 1.921,-0.146 0.616,-0.097 1.107,-0.199 1.47,-0.304 v 2.867 c -0.408,0.196 -1.007,0.359 -1.797,0.487 -0.793,0.127 -1.503,0.192 -2.139,0.192 -4.789,0 -7.186,-2.522 -7.186,-7.57 V 54.266 h -3.548 v -1.809 l 3.548,-1.561 1.583,-5.288 h 2.168 v 5.743 h 7.188 v 2.915 h -7.188 v 14.577 c 0,1.494 0.355,2.639 1.062,3.435 0.71,0.8 1.681,1.199 2.918,1.199"
         clip-path="url(#SVGID_2_)"
         id="path37"
         style="fill:#939598" />
    </g>
  </g>
</svg>
